<svg width="180" height="40" viewBox="0 0 180 40" fill="none" xmlns="http://www.w3.org/2000/svg" data-v-6cd31e63=""><path d="M18.86 15.868a1.99 1.99 0 01-1.985 1.984 1.868 1.868 0 01-1.39-.595l-3.375-3.372h4.798c1.084.018 1.952.9 1.952 1.983zm20.813 3.868a19.815 19.815 0 01-9.845 17.274 19.853 19.853 0 01-19.896.05A19.815 19.815 0 010 19.835c0-2.96.655-5.884 1.92-8.562L0 7.934h15.882c7.676 0 13.897 6.217 13.897 13.885v3.967h-4.996a14.63 14.63 0 00-7.213 1.917l-7.71 4.463c2.82 2.3 6.353 3.55 9.993 3.537a15.882 15.882 0 0014.9-10.342 15.858 15.858 0 00-4.528-17.554 15.894 15.894 0 00-18.049-1.856H5.692A19.833 19.833 0 0127.31 1.457a19.802 19.802 0 0112.363 18.279zM7.048 29.191l9.364-5.389a15.023 15.023 0 017.445-1.983h1.952a9.9 9.9 0 00-2.904-7.017 9.918 9.918 0 00-7.023-2.9H6.088a15.832 15.832 0 00.96 17.289z" fill="#0C9"></path><path d="M73.158 25.785V11.901h2.713v13.884h-2.713zM96.485 13.62l6.551 12.165h-2.845l-.066-.165c-.464-.562-3.971-1.884-7.346-1.884h-1.654l-1.092 2.05h-2.978l7.411-13.852h2.945l-.926 1.686zm-3.706 7.67c2.846 0 4.665.727 5.559 1.19l-3.243-6.215-2.68 5.024h.364zM142.975 25.785v-13.85h2.713v13.85h-2.713zM151.61 25.785v-13.85h2.846v11.14h7.279v2.71H151.61zM169.346 11.9h2.945l7.411 13.852h-2.978l-1.092-2.05h-1.654c-3.375 0-6.915 1.323-7.346 1.885l-.066.165h-2.845l6.551-12.165-.926-1.686zm4.963 9.39l-2.68-5.025-3.243 6.214a12.295 12.295 0 015.559-1.19h.364zM130.368 26.182c-3.805 0-6.585-1.752-6.585-5.72v-8.561h2.713v8.562c0 2.314 1.556 3.008 3.872 3.008s3.871-.694 3.871-3.008V11.9h2.713v8.562c0 3.967-2.779 5.719-6.584 5.719zM118.588 24.265a8.685 8.685 0 01-5.625 1.95c-4.136 0-8.073-2.678-8.073-7.24 0-4.595 4.003-7.173 8.073-7.173 1.965-.04 3.89.55 5.493 1.686l-1.82 2.082a6.717 6.717 0 00-3.673-1.058c-2.647 0-5.195 1.455-5.195 4.496 0 3.075 2.614 4.463 5.228 4.463a6.265 6.265 0 002.879-.694v-2.182h-1.39l-1.158-2.545h5.261v6.215zM67.235 14.083v11.702h-2.978v-8.264l-4.83 6.38-4.832-6.38v8.264h-2.978V14.083L50.261 11.9h3.342l5.856 7.67 5.857-7.67h3.342l-1.423 2.182z" fill="#000"></path><path d="M99.496 7.934l-1.059 1.984h-2.912l1.06-1.984h2.911z" fill="#0C9"></path></svg>